<?xml version="1.0" encoding="utf-8"?>
<!-- Generator: Adobe Illustrator 16.2.0, SVG Export Plug-In . SVG Version: 6.00 Build 0)  -->
<!DOCTYPE svg PUBLIC "-//W3C//DTD SVG 1.1//EN" "http://www.w3.org/Graphics/SVG/1.1/DTD/svg11.dtd">
<svg version="1.1" xmlns="http://www.w3.org/2000/svg" xmlns:xlink="http://www.w3.org/1999/xlink" x="0px" y="0px" width="1280px"
	 height="720px" viewBox="0 0 1280 720" enable-background="new 0 0 1280 720" xml:space="preserve">
<g id="axon">
	
		<rect id="topMembrane" x="49.491" y="308.174" fill="#414FA1" stroke="#E26B27" stroke-width="2.3848" stroke-miterlimit="10" width="1125.771" height="7.812"/>
	
		<rect id="bottomMembrane" x="49.491" y="569.175" fill="#414FA1" stroke="#E26B27" stroke-width="2.3848" stroke-miterlimit="10" width="1125.771" height="7.813"/>
	
		<linearGradient id="axoplasm_1_" gradientUnits="userSpaceOnUse" x1="1112.376" y1="924.1738" x2="1112.376" y2="670.9873" gradientTransform="matrix(1 0 0 1 -500 -355)">
		<stop  offset="0.0067" style="stop-color:#B3D675"/>
		<stop  offset="0.0234" style="stop-color:#B8D87F"/>
		<stop  offset="0.1006" style="stop-color:#CEE4A7"/>
		<stop  offset="0.1805" style="stop-color:#DFEDC6"/>
		<stop  offset="0.2626" style="stop-color:#EEF5E0"/>
		<stop  offset="0.3479" style="stop-color:#F7FAF2"/>
		<stop  offset="0.4383" style="stop-color:#FDFEFD"/>
		<stop  offset="0.5426" style="stop-color:#FFFFFF"/>
		<stop  offset="0.6618" style="stop-color:#FFFFFF"/>
		<stop  offset="0.7301" style="stop-color:#F9FCF4"/>
		<stop  offset="0.7855" style="stop-color:#F0F7E6"/>
		<stop  offset="0.834" style="stop-color:#E5F0D3"/>
		<stop  offset="0.878" style="stop-color:#D5E8B9"/>
		<stop  offset="0.9188" style="stop-color:#C4DF9A"/>
		<stop  offset="0.9571" style="stop-color:#ACD375"/>
		<stop  offset="0.9925" style="stop-color:#94C94B"/>
		<stop  offset="1" style="stop-color:#8EC741"/>
	</linearGradient>
	<rect id="axoplasm" x="49.491" y="315.986" fill="url(#axoplasm_1_)" width="1125.771" height="253.188"/>
</g>
<g id="Layer_2">
	<g id="intracellularResistance" display="none">
		
			<polyline display="inline" fill="none" stroke="#000000" stroke-width="4" stroke-linecap="round" stroke-miterlimit="10" points="
			101.01,448.084 247.557,448.712 252.069,457.895 260.302,441.142 267.882,456.567 275.26,441.553 282.435,456.154 
			290.263,440.227 297.764,455.492 305.817,439.105 311.01,448.084 381.525,448.084 		"/>
		
			<polyline display="inline" fill="none" stroke="#000000" stroke-width="4" stroke-linecap="round" stroke-miterlimit="10" points="
			22.042,448.712 37.557,448.712 42.069,457.895 50.302,441.142 57.882,456.567 65.26,441.553 72.435,456.154 80.263,440.227 
			87.764,455.492 95.817,439.105 101.01,448.084 		"/>
	</g>
	<g id="circuit2" display="none">
		<path display="inline" fill="none" stroke="#000000" stroke-width="4" stroke-linecap="round" stroke-miterlimit="10" d="
			M381.525,177.584"/>
		
			<polyline display="inline" fill="none" stroke="#000000" stroke-width="4" stroke-linecap="round" stroke-miterlimit="10" points="
			383.042,178.712 458.557,178.712 463.069,187.895 471.302,171.142 478.882,186.567 486.26,171.553 493.435,186.154 
			501.263,170.227 508.764,185.492 516.817,169.105 522.01,178.084 592.525,178.084 		"/>
		
			<polyline display="inline" fill="none" stroke="#000000" stroke-width="4" stroke-linecap="round" stroke-miterlimit="10" points="
			383.042,448.712 458.557,448.712 463.069,457.895 471.302,441.142 478.882,456.567 486.26,441.553 493.435,456.154 
			501.263,440.227 508.764,455.492 516.817,439.105 522.01,448.084 592.525,448.084 		"/>
		<path display="inline" fill="none" stroke="#000000" stroke-width="4" stroke-miterlimit="10" d="M366.008,321.986"/>
		
			<line display="inline" fill="#FFFFFF" stroke="#000000" stroke-width="4" stroke-miterlimit="10" x1="326.345" y1="302.664" x2="366.167" y2="302.664"/>
		
			<line display="inline" fill="#FFFFFF" stroke="#000000" stroke-width="4" stroke-miterlimit="10" x1="366.167" y1="322.708" x2="326.345" y2="322.708"/>
		<polyline display="inline" fill="none" stroke="#000000" stroke-width="4" stroke-miterlimit="10" points="346.256,322.708 
			346.602,388.5 419.035,388.5 419.035,344.678 		"/>
		
			<line display="inline" fill="none" stroke="#000000" stroke-width="4" stroke-miterlimit="10" x1="390.322" y1="344.678" x2="444.56" y2="344.678"/>
		
			<line display="inline" fill="none" stroke="#000000" stroke-width="4" stroke-miterlimit="10" x1="403.492" y1="338.5" x2="429.921" y2="338.5"/>
		
			<line display="inline" fill="none" stroke="#000000" stroke-width="4" stroke-miterlimit="10" x1="390.322" y1="331.678" x2="444.56" y2="331.678"/>
		
			<line display="inline" fill="none" stroke="#000000" stroke-width="4" stroke-miterlimit="10" x1="403.492" y1="325.5" x2="429.921" y2="325.5"/>
		<polyline display="inline" fill="none" stroke="#000000" stroke-width="4" stroke-miterlimit="10" points="346.256,235.084 
			419.829,235.084 418.896,235.084 418.896,257.707 412.888,260.983 423.85,266.961 413.756,272.465 423.581,277.822 
			414.027,283.032 424.449,288.716 414.46,294.163 425.183,300.009 418.268,303.78 418.268,325.708 		"/>
		
			<line display="inline" fill="none" stroke="#000000" stroke-width="4" stroke-miterlimit="10" x1="383.042" y1="178.712" x2="383.042" y2="235.084"/>
		
			<line display="inline" fill="none" stroke="#000000" stroke-width="4" stroke-miterlimit="10" x1="383.042" y1="448.712" x2="383.042" y2="388.5"/>
		<g id="arrow" display="inline">
			<polygon points="424.908,259.795 434.22,253.117 431.189,264.168 			"/>
			
				<line fill="none" stroke="#000000" stroke-width="4" stroke-miterlimit="10" x1="428.048" y1="261.982" x2="402.146" y2="299.193"/>
		</g>
		
			<line display="inline" fill="none" stroke="#000000" stroke-width="4" stroke-miterlimit="10" x1="346.256" y1="302.664" x2="346.256" y2="235.084"/>
	</g>
	<g id="circuit3" display="none">
		
			<polyline display="inline" fill="none" stroke="#000000" stroke-width="4" stroke-linecap="round" stroke-miterlimit="10" points="
			593.042,178.712 668.557,178.712 673.069,187.895 681.302,171.142 688.882,186.567 696.26,171.553 703.436,186.154 
			711.263,170.227 718.764,185.492 726.816,169.105 732.01,178.084 802.525,178.084 		"/>
		
			<polyline display="inline" fill="none" stroke="#000000" stroke-width="4" stroke-linecap="round" stroke-miterlimit="10" points="
			593.042,448.712 668.557,448.712 673.069,457.895 681.302,441.142 688.882,456.567 696.26,441.553 703.436,456.154 
			711.263,440.227 718.764,455.492 726.816,439.105 732.01,448.084 802.525,448.084 		"/>
		<path display="inline" fill="none" stroke="#000000" stroke-width="4" stroke-miterlimit="10" d="M576.008,321.986"/>
		
			<line display="inline" fill="#FFFFFF" stroke="#000000" stroke-width="4" stroke-miterlimit="10" x1="536.345" y1="302.664" x2="576.167" y2="302.664"/>
		
			<line display="inline" fill="#FFFFFF" stroke="#000000" stroke-width="4" stroke-miterlimit="10" x1="576.167" y1="322.708" x2="536.345" y2="322.708"/>
		<polyline display="inline" fill="none" stroke="#000000" stroke-width="4" stroke-miterlimit="10" points="556.256,322.708 
			556.602,388.5 629.035,388.5 629.035,344.678 		"/>
		
			<line display="inline" fill="none" stroke="#000000" stroke-width="4" stroke-miterlimit="10" x1="600.322" y1="344.678" x2="654.56" y2="344.678"/>
		
			<line display="inline" fill="none" stroke="#000000" stroke-width="4" stroke-miterlimit="10" x1="613.492" y1="338.5" x2="639.921" y2="338.5"/>
		
			<line display="inline" fill="none" stroke="#000000" stroke-width="4" stroke-miterlimit="10" x1="600.322" y1="331.678" x2="654.56" y2="331.678"/>
		
			<line display="inline" fill="none" stroke="#000000" stroke-width="4" stroke-miterlimit="10" x1="613.492" y1="325.5" x2="639.921" y2="325.5"/>
		
			<line display="inline" fill="none" stroke="#000000" stroke-width="4" stroke-miterlimit="10" x1="556.256" y1="302.664" x2="556.256" y2="235.084"/>
		<polyline display="inline" fill="none" stroke="#000000" stroke-width="4" stroke-miterlimit="10" points="556.256,235.084 
			629.829,235.084 628.896,235.084 628.896,257.707 622.888,260.983 633.85,266.961 623.756,272.465 633.581,277.822 
			624.027,283.032 634.449,288.716 624.46,294.163 635.183,300.009 628.268,303.78 628.268,325.708 		"/>
		
			<line display="inline" fill="none" stroke="#000000" stroke-width="4" stroke-miterlimit="10" x1="593.042" y1="178.712" x2="593.042" y2="235.084"/>
		
			<line display="inline" fill="none" stroke="#000000" stroke-width="4" stroke-miterlimit="10" x1="593.042" y1="448.712" x2="593.042" y2="388.5"/>
		<g display="inline">
			<polygon points="633.908,259.795 643.22,253.117 640.189,264.168 			"/>
			
				<line fill="none" stroke="#000000" stroke-width="4" stroke-miterlimit="10" x1="637.049" y1="261.982" x2="611.146" y2="299.193"/>
		</g>
	</g>
	<g id="circuit4" display="none">
		
			<polyline display="inline" fill="none" stroke="#000000" stroke-width="4" stroke-linecap="round" stroke-miterlimit="10" points="
			803.042,178.712 878.557,178.712 883.069,187.895 891.302,171.142 898.882,186.567 906.26,171.553 913.436,186.154 
			921.263,170.227 928.764,185.492 936.816,169.105 942.01,178.084 1012.525,178.084 		"/>
		
			<polyline display="inline" fill="none" stroke="#000000" stroke-width="4" stroke-linecap="round" stroke-miterlimit="10" points="
			803.042,448.712 878.557,448.712 883.069,457.895 891.302,441.142 898.882,456.567 906.26,441.553 913.436,456.154 
			921.263,440.227 928.764,455.492 936.816,439.105 942.01,448.084 1012.525,448.084 		"/>
		<path display="inline" fill="none" stroke="#000000" stroke-width="4" stroke-miterlimit="10" d="M786.008,321.986"/>
		
			<line display="inline" fill="#FFFFFF" stroke="#000000" stroke-width="4" stroke-miterlimit="10" x1="746.345" y1="302.664" x2="786.168" y2="302.664"/>
		
			<line display="inline" fill="#FFFFFF" stroke="#000000" stroke-width="4" stroke-miterlimit="10" x1="786.168" y1="322.708" x2="746.345" y2="322.708"/>
		<polyline display="inline" fill="none" stroke="#000000" stroke-width="4" stroke-miterlimit="10" points="766.256,322.708 
			766.602,388.5 839.035,388.5 839.035,344.678 		"/>
		
			<line display="inline" fill="none" stroke="#000000" stroke-width="4" stroke-miterlimit="10" x1="810.322" y1="344.678" x2="864.56" y2="344.678"/>
		
			<line display="inline" fill="none" stroke="#000000" stroke-width="4" stroke-miterlimit="10" x1="823.492" y1="338.5" x2="849.922" y2="338.5"/>
		
			<line display="inline" fill="none" stroke="#000000" stroke-width="4" stroke-miterlimit="10" x1="810.322" y1="331.678" x2="864.56" y2="331.678"/>
		
			<line display="inline" fill="none" stroke="#000000" stroke-width="4" stroke-miterlimit="10" x1="823.492" y1="325.5" x2="849.922" y2="325.5"/>
		
			<line display="inline" fill="none" stroke="#000000" stroke-width="4" stroke-miterlimit="10" x1="766.256" y1="302.664" x2="766.256" y2="235.084"/>
		<polyline display="inline" fill="none" stroke="#000000" stroke-width="4" stroke-miterlimit="10" points="766.256,235.084 
			839.828,235.084 838.896,235.084 838.896,257.707 832.889,260.983 843.85,266.961 833.756,272.465 843.58,277.822 
			834.027,283.032 844.449,288.716 834.46,294.163 845.183,300.009 838.268,303.78 838.268,325.708 		"/>
		
			<line display="inline" fill="none" stroke="#000000" stroke-width="4" stroke-miterlimit="10" x1="803.042" y1="178.712" x2="803.042" y2="235.084"/>
		
			<line display="inline" fill="none" stroke="#000000" stroke-width="4" stroke-miterlimit="10" x1="803.042" y1="448.712" x2="803.042" y2="388.5"/>
		<g display="inline">
			<polygon points="846.908,259.795 856.22,253.117 853.189,264.168 			"/>
			
				<line fill="none" stroke="#000000" stroke-width="4" stroke-miterlimit="10" x1="850.049" y1="261.982" x2="824.146" y2="299.193"/>
		</g>
	</g>
	<g id="circuit5" display="none">
		
			<line display="inline" fill="none" stroke="#000000" stroke-width="4" stroke-miterlimit="10" x1="978.256" y1="302.664" x2="978.256" y2="235.084"/>
		
			<polyline display="inline" fill="none" stroke="#000000" stroke-width="4" stroke-linecap="round" stroke-miterlimit="10" points="
			1014.042,178.712 1089.557,178.712 1094.069,187.895 1102.302,171.142 1109.882,186.567 1117.26,171.553 1124.436,186.154 
			1132.263,170.227 1139.764,185.492 1147.816,169.105 1153.01,178.084 1223.525,178.084 		"/>
		
			<polyline display="inline" fill="none" stroke="#000000" stroke-width="4" stroke-linecap="round" stroke-miterlimit="10" points="
			1014.042,448.712 1089.557,448.712 1094.069,457.895 1102.302,441.142 1109.882,456.567 1117.26,441.553 1124.436,456.154 
			1132.263,440.227 1139.764,455.492 1147.816,439.105 1153.01,448.084 1223.525,448.084 		"/>
		<path display="inline" fill="none" stroke="#000000" stroke-width="4" stroke-miterlimit="10" d="M997.008,321.986"/>
		
			<line display="inline" fill="#FFFFFF" stroke="#000000" stroke-width="4" stroke-miterlimit="10" x1="957.345" y1="302.664" x2="997.168" y2="302.664"/>
		
			<line display="inline" fill="#FFFFFF" stroke="#000000" stroke-width="4" stroke-miterlimit="10" x1="997.168" y1="322.708" x2="957.345" y2="322.708"/>
		<polyline display="inline" fill="none" stroke="#000000" stroke-width="4" stroke-miterlimit="10" points="977.256,322.708 
			977.602,388.5 1050.035,388.5 1050.035,344.678 		"/>
		
			<line display="inline" fill="none" stroke="#000000" stroke-width="4" stroke-miterlimit="10" x1="1021.322" y1="344.678" x2="1075.56" y2="344.678"/>
		
			<line display="inline" fill="none" stroke="#000000" stroke-width="4" stroke-miterlimit="10" x1="1034.492" y1="338.5" x2="1060.922" y2="338.5"/>
		
			<line display="inline" fill="none" stroke="#000000" stroke-width="4" stroke-miterlimit="10" x1="1021.322" y1="331.678" x2="1075.56" y2="331.678"/>
		
			<line display="inline" fill="none" stroke="#000000" stroke-width="4" stroke-miterlimit="10" x1="1034.492" y1="325.5" x2="1060.922" y2="325.5"/>
		<polyline display="inline" fill="none" stroke="#000000" stroke-width="4" stroke-miterlimit="10" points="977.256,235.084 
			1050.828,235.084 1049.896,235.084 1049.896,257.707 1043.889,260.983 1054.85,266.961 1044.756,272.465 1054.58,277.822 
			1045.027,283.032 1055.449,288.716 1045.46,294.163 1056.183,300.009 1049.268,303.78 1049.268,325.708 		"/>
		
			<line display="inline" fill="none" stroke="#000000" stroke-width="4" stroke-miterlimit="10" x1="1014.042" y1="178.712" x2="1014.042" y2="235.084"/>
		
			<line display="inline" fill="none" stroke="#000000" stroke-width="4" stroke-miterlimit="10" x1="1014.042" y1="448.712" x2="1014.042" y2="388.5"/>
		<g display="inline">
			<polygon points="1057.908,259.795 1067.22,253.117 1064.189,264.168 			"/>
			
				<line fill="none" stroke="#000000" stroke-width="4" stroke-miterlimit="10" x1="1061.049" y1="261.982" x2="1035.146" y2="299.193"/>
		</g>
	</g>
	<g id="extracellularResistance" display="none">
		
			<polyline display="inline" fill="none" stroke="#000000" stroke-width="4" stroke-linecap="round" stroke-miterlimit="10" points="
			101.01,177.584 247.557,177.212 252.069,187.395 260.302,170.642 267.882,186.067 275.26,171.053 282.435,185.654 
			290.263,169.727 297.764,184.992 305.817,168.605 311.01,177.584 381.525,177.584 		"/>
		
			<polyline display="inline" fill="none" stroke="#000000" stroke-width="4" stroke-linecap="round" stroke-miterlimit="10" points="
			42.069,187.395 50.302,170.642 57.882,186.067 65.26,171.053 72.435,185.654 80.263,169.727 87.764,184.992 95.817,168.605 
			101.01,177.584 		"/>
	</g>
	<g id="membraneCircuit" display="none">
		<path display="inline" fill="none" stroke="#000000" stroke-width="4" stroke-miterlimit="10" d="M155.008,321.986"/>
		<g display="inline">
			
				<line fill="#FFFFFF" stroke="#000000" stroke-width="4" stroke-miterlimit="10" x1="115.345" y1="302.664" x2="155.167" y2="302.664"/>
			
				<line fill="#FFFFFF" stroke="#000000" stroke-width="4" stroke-miterlimit="10" x1="155.167" y1="322.708" x2="115.345" y2="322.708"/>
		</g>
		<polyline display="inline" fill="none" stroke="#000000" stroke-width="4" stroke-miterlimit="10" points="135.256,322.708 
			135.602,388.5 208.035,388.5 208.035,344.678 		"/>
		
			<line display="inline" fill="none" stroke="#000000" stroke-width="4" stroke-miterlimit="10" x1="179.322" y1="344.678" x2="233.56" y2="344.678"/>
		
			<line display="inline" fill="none" stroke="#000000" stroke-width="4" stroke-miterlimit="10" x1="192.492" y1="338.5" x2="218.921" y2="338.5"/>
		
			<line display="inline" fill="none" stroke="#000000" stroke-width="4" stroke-miterlimit="10" x1="179.322" y1="331.678" x2="233.56" y2="331.678"/>
		
			<line display="inline" fill="none" stroke="#000000" stroke-width="4" stroke-miterlimit="10" x1="192.492" y1="325.5" x2="218.921" y2="325.5"/>
		
			<line display="inline" fill="none" stroke="#000000" stroke-width="4" stroke-miterlimit="10" x1="135.256" y1="302.664" x2="135.256" y2="235.084"/>
		<polyline display="inline" fill="none" stroke="#000000" stroke-width="4" stroke-miterlimit="10" points="135.256,235.084 
			208.829,235.084 207.896,235.084 207.896,257.707 201.888,260.983 212.85,266.961 202.756,272.465 212.581,277.822 
			203.027,283.032 213.449,288.716 203.46,294.163 214.183,300.009 207.268,303.78 207.268,325.708 		"/>
		<path display="inline" fill="none" stroke="#000000" stroke-width="4" stroke-miterlimit="10" d="M172.042,235.084"/>
		
			<line display="inline" fill="none" stroke="#000000" stroke-width="4" stroke-miterlimit="10" x1="171.525" y1="177.584" x2="172.042" y2="235.084"/>
		
			<line display="inline" fill="none" stroke="#000000" stroke-width="4" stroke-miterlimit="10" x1="172.042" y1="448.712" x2="172.042" y2="388.5"/>
		<g display="inline">
			<polygon points="214.908,259.795 224.22,253.117 221.189,264.168 			"/>
			
				<line fill="none" stroke="#000000" stroke-width="4" stroke-miterlimit="10" x1="218.048" y1="261.982" x2="192.146" y2="299.193"/>
		</g>
		<circle display="inline" cx="171.74" cy="177.588" r="5.215"/>
		<circle display="inline" cx="171.74" cy="448.588" r="5.215"/>
	</g>
	<g id="Raxial" display="none">
		<text transform="matrix(1 0 0 1 268.814 491.627)" display="inline"><tspan x="0" y="0" font-family="'MyriadPro-Semibold'" font-size="30">R</tspan><tspan x="17.069" y="4" font-family="'MyriadPro-Semibold'" font-size="22">axial</tspan></text>
		<rect x="268.814" y="466.44" display="inline" fill="none" width="65.254" height="38.136"/>
	</g>
	<g id="Em" display="none">
		<text transform="matrix(1 0 0 1 240.3228 353.3394)" display="inline"><tspan x="0" y="0" font-family="'MyriadPro-Semibold'" font-size="30">E</tspan><tspan x="15.45" y="4" font-family="'MyriadPro-Semibold'" font-size="22">m</tspan></text>
		<rect x="234.068" y="328.305" display="inline" fill="none" width="43.22" height="31.695"/>
	</g>
	<g id="Cm" display="none">
		<text transform="matrix(1 0 0 1 86.3228 294.3394)" display="inline"><tspan x="0" y="0" font-family="'MyriadPro-Semibold'" font-size="30">C</tspan><tspan x="17.64" y="4" font-family="'MyriadPro-Semibold'" font-size="22">m</tspan></text>
		<g display="inline">
			<rect x="78.983" y="265.593" fill="none" width="50.848" height="38.135"/>
		</g>
	</g>
	<g id="Rm" display="none">
		<text transform="matrix(1 0 0 1 239.814 271.627)" display="inline"><tspan x="0" y="0" font-family="'MyriadPro-Semibold'" font-size="30">R</tspan><tspan x="17.069" y="4" font-family="'MyriadPro-Semibold'" font-size="22">m</tspan></text>
		<rect x="235.763" y="248.644" display="inline" fill="none" width="41.525" height="32.203"/>
	</g>
	<g id="Rextra" display="none">
		<text transform="matrix(1 0 0 1 268.814 141.627)" display="inline"><tspan x="0" y="0" font-family="'MyriadPro-Semibold'" font-size="30">R</tspan><tspan x="17.069" y="4" font-family="'MyriadPro-Semibold'" font-size="22">extra</tspan></text>
		<rect x="268.814" y="117.288" display="inline" fill="none" width="69.492" height="35.593"/>
	</g>
</g>
<g id="Layer_3">
	
		<linearGradient id="leftFade_3_" gradientUnits="userSpaceOnUse" x1="-178.1025" y1="84.9248" x2="-90.3873" y2="83.3005" gradientTransform="matrix(-1 0 0 1 1021.8301 289.8672)">
		<stop  offset="0" style="stop-color:#FFFFFF"/>
		<stop  offset="0.8537" style="stop-color:#FFFFFF;stop-opacity:0.1463"/>
		<stop  offset="1" style="stop-color:#FFFFFF;stop-opacity:0"/>
	</linearGradient>
	<rect id="leftFade_1_" x="1081.742" y="141.627" fill="url(#leftFade_3_)" width="150.63" height="464.741"/>
	
		<linearGradient id="leftFade_4_" gradientUnits="userSpaceOnUse" x1="891.957" y1="84.6729" x2="951.782" y2="83.565" gradientTransform="matrix(1 0 0 -1 -871.1992 458.127)">
		<stop  offset="0" style="stop-color:#FFFFFF"/>
		<stop  offset="0.8587" style="stop-color:#FFFFFF;stop-opacity:0.1413"/>
		<stop  offset="1" style="stop-color:#FFFFFF;stop-opacity:0"/>
	</linearGradient>
	<rect id="leftFade_2_" x="0.001" y="141.626" fill="url(#leftFade_4_)" width="99.999" height="464.741"/>
</g>
</svg>
